<svg width="40" height="40" viewBox="0 0 40 40" xmlns="http://www.w3.org/2000/svg"><title>maximize</title><g fill="#6a6f74" fill-rule="evenodd"><path d="M28 36h10a2 2 0 0 1 0 4H28a2 2 0 0 1 0-4z"/><path d="M38 26a2 2 0 0 1 2 2v10a2 2 0 0 1-4 0V28a2 2 0 0 1 2-2zM2 26a2 2 0 0 1 2 2v10a2 2 0 0 1-4 0V28a2 2 0 0 1 2-2z"/><path d="M2 36h10a2 2 0 0 1 0 4H2a2 2 0 0 1 0-4z"/><g><path d="M2 0h10a2 2 0 0 1 0 4H2a2 2 0 0 1 0-4z"/><path d="M2 0a2 2 0 0 1 2 2v10a2 2 0 0 1-4 0V2a2 2 0 0 1 2-2z"/></g><g><path d="M38 0a2 2 0 0 1 2 2v10a2 2 0 0 1-4 0V2a2 2 0 0 1 2-2z"/><path d="M28 0h10a2 2 0 0 1 0 4H28a2 2 0 0 1 0-4z"/></g></g></svg>