<svg width="40" height="40" viewBox="0 0 40 40" xmlns="http://www.w3.org/2000/svg"><title>minimize</title><g fill="#6a6f74" fill-rule="evenodd"><path d="M38 30H28a2 2 0 0 1 0-4h10a2 2 0 0 1 0 4z"/><path d="M28 40a2 2 0 0 1-2-2V28a2 2 0 0 1 4 0v10a2 2 0 0 1-2 2zM12 40a2 2 0 0 1-2-2V28a2 2 0 0 1 4 0v10a2 2 0 0 1-2 2z"/><path d="M12 30H2a2 2 0 0 1 0-4h10a2 2 0 0 1 0 4z"/><g><path d="M12 14H2a2 2 0 0 1 0-4h10a2 2 0 0 1 0 4z"/><path d="M12 14a2 2 0 0 1-2-2V2a2 2 0 0 1 4 0v10a2 2 0 0 1-2 2z"/></g><g><path d="M28 14a2 2 0 0 1-2-2V2a2 2 0 0 1 4 0v10a2 2 0 0 1-2 2z"/><path d="M38 14H28a2 2 0 0 1 0-4h10a2 2 0 0 1 0 4z"/></g></g></svg>